<svg width="170" height="60" viewBox="0 0 170 60" fill="none" xmlns="http://www.w3.org/2000/svg">
<path d="M15.672 43.368C16.36 43.32 17.032 43.376 17.688 43.536C18.36 43.696 18.72 43.888 18.768 44.112C18.8 44.384 18.72 44.584 18.528 44.712C18.352 44.824 17.952 44.928 17.328 45.024C16 45.232 15.016 45.496 14.376 45.816C14.184 45.928 14.016 46.592 13.872 47.808C13.824 48.272 13.784 48.6 13.752 48.792C13.736 48.984 13.744 49.192 13.776 49.416C13.808 49.64 13.84 49.784 13.872 49.848C13.904 49.896 14 49.96 14.16 50.04C14.336 50.104 14.504 50.136 14.664 50.136C14.824 50.136 15.088 50.136 15.456 50.136C15.984 50.136 16.392 50.168 16.68 50.232C16.984 50.296 17.344 50.424 17.76 50.616C18.368 50.92 18.76 51.192 18.936 51.432C19.112 51.656 19.088 51.872 18.864 52.08C18.736 52.24 18.544 52.336 18.288 52.368C18.032 52.4 17.464 52.416 16.584 52.416C15.256 52.416 14.088 52.52 13.08 52.728C12.424 52.872 11.976 52.952 11.736 52.968C11.496 52.984 11.288 52.952 11.112 52.872C10.904 52.776 10.768 52.656 10.704 52.512C10.656 52.352 10.624 51.984 10.608 51.408L10.56 50.136L11.136 49.8C11.52 49.576 11.752 49.328 11.832 49.056C11.896 48.72 11.896 48.312 11.832 47.832C11.768 47.336 11.664 47.008 11.52 46.848C11.36 46.688 11.24 46.376 11.16 45.912C11.096 45.448 11.12 45.176 11.232 45.096C11.328 45.048 11.416 45.08 11.496 45.192C11.624 45.4 11.76 45.344 11.904 45.024C12 44.832 12.048 44.632 12.048 44.424C12.048 44.072 11.976 43.656 11.832 43.176C11.688 42.696 11.568 42.28 11.472 41.928C11.392 41.576 11.408 41.4 11.52 41.4C11.632 41.4 11.992 41.608 12.6 42.024C13.224 42.424 13.648 42.864 13.872 43.344C14.112 43.808 14.272 44.064 14.352 44.112C14.448 44.16 14.64 44.048 14.928 43.776C15.232 43.504 15.48 43.368 15.672 43.368ZM5.4 41.4C5.608 41.4 6.064 41.616 6.768 42.048C7.488 42.48 7.896 42.784 7.992 42.96C8.136 43.216 8.216 44.704 8.232 47.424C8.264 50.128 8.208 51.528 8.064 51.624C7.84 51.768 7.544 51.808 7.176 51.744C6.824 51.664 6.528 51.504 6.288 51.264C5.808 50.784 5.552 50.728 5.52 51.096C5.488 51.112 5.472 51.136 5.472 51.168C5.472 51.44 5.024 52.032 4.128 52.944C3.344 53.728 2.848 53.704 2.64 52.872C2.528 52.472 2.528 52.136 2.64 51.864C2.768 51.576 2.96 51.432 3.216 51.432C3.456 51.432 3.864 51.184 4.44 50.688C5.016 50.192 5.304 49.84 5.304 49.632C5.304 49.456 5.24 49.296 5.112 49.152C4.984 49.008 4.992 48.896 5.136 48.816C5.296 48.72 5.456 48.696 5.616 48.744C5.744 48.808 5.864 48.768 5.976 48.624C6.088 48.464 6.144 48.256 6.144 48C6.144 47.824 6.12 47.736 6.072 47.736C6.04 47.72 5.896 47.784 5.64 47.928C5.288 48.12 5.08 48.16 5.016 48.048C4.984 47.984 5.016 47.896 5.112 47.784C5.544 47.368 5.32 46.888 4.44 46.344C3.384 45.72 2.936 45.184 3.096 44.736C3.144 44.592 3.272 44.536 3.48 44.568C3.688 44.584 4.112 44.68 4.752 44.856C4.816 44.872 4.912 44.904 5.04 44.952C5.632 45.112 5.968 45.168 6.048 45.12C6.128 45.072 6.144 44.84 6.096 44.424C6.096 44.328 6.088 44.248 6.072 44.184C5.992 43.512 5.816 42.952 5.544 42.504C5.288 42.056 5.16 41.76 5.16 41.616C5.16 41.472 5.24 41.4 5.4 41.4ZM27.7774 38.4C27.7934 38.368 27.8654 38.36 27.9934 38.376C28.1374 38.392 28.2974 38.432 28.4734 38.496C28.6654 38.56 28.8014 38.616 28.8814 38.664C29.0094 38.776 29.1934 39.024 29.4334 39.408L29.7934 39.96L29.3854 41.304C29.1774 42.072 29.1054 42.568 29.1694 42.792C29.2494 43.016 29.5534 43.208 30.0814 43.368C30.7854 43.608 31.2334 43.776 31.4254 43.872C31.6174 43.952 31.7694 44.096 31.8814 44.304C32.0094 44.56 32.1374 44.72 32.2654 44.784C32.4094 44.832 32.9614 44.448 33.9214 43.632C34.9774 42.752 35.7614 42.216 36.2734 42.024C36.7854 41.832 37.2494 41.912 37.6654 42.264C38.3694 42.808 38.2734 43.616 37.3774 44.688C36.8814 45.28 36.5454 45.728 36.3694 46.032L36.1294 46.512H36.9934C37.4734 46.512 37.9054 46.608 38.2894 46.8C38.6734 46.976 38.9454 47.224 39.1054 47.544C39.2334 47.784 39.2654 48.192 39.2014 48.768C39.1534 49.344 39.0494 49.736 38.8894 49.944C38.7294 50.12 38.6094 50.488 38.5294 51.048L38.4574 51.864L39.5614 52.392C41.1134 53.128 42.0334 53.84 42.3214 54.528C42.4494 54.832 42.4974 55.024 42.4654 55.104C42.4494 55.184 42.3054 55.344 42.0334 55.584C41.6654 55.888 41.4014 56.04 41.2414 56.04C41.0014 56.056 40.7694 55.96 40.5454 55.752C40.3374 55.528 40.2334 55.304 40.2334 55.08C40.2334 54.872 40.1614 54.704 40.0174 54.576C39.8894 54.432 39.5854 54.216 39.1054 53.928C38.3534 53.48 37.8494 53.256 37.5934 53.256C37.3374 53.256 36.9614 53.496 36.4654 53.976C35.5854 54.808 34.4734 55.304 33.1294 55.464C32.6814 55.512 32.3854 55.52 32.2414 55.488C32.1134 55.44 31.9374 55.312 31.7134 55.104C31.3774 54.768 31.2094 54.496 31.2094 54.288C31.2094 54.08 31.1774 53.936 31.1134 53.856C31.0334 53.792 30.9534 53.784 30.8734 53.832C30.7934 53.88 30.7214 53.968 30.6574 54.096C30.5934 54.224 30.5614 54.344 30.5614 54.456C30.5614 54.696 30.4494 54.888 30.2254 55.032C30.0654 55.128 29.9454 55.176 29.8654 55.176C29.7854 55.16 29.6814 55.088 29.5534 54.96C29.3614 54.768 29.2334 54.576 29.1694 54.384C29.1054 54.176 29.1374 53.848 29.2654 53.4C29.4094 52.952 29.5934 52.592 29.8174 52.32C30.0574 52.016 30.3134 51.592 30.5854 51.048L31.8574 48.6C32.5294 47.304 32.7774 46.656 32.6014 46.656C32.5214 46.656 32.3694 46.72 32.1454 46.848C31.8094 47.072 31.4414 47.184 31.0414 47.184C30.7854 47.2 30.5854 47.256 30.4414 47.352C30.3134 47.448 30.1054 47.704 29.8174 48.12C29.1454 49.032 28.7694 49.624 28.6894 49.896C28.6094 50.168 28.5854 50.904 28.6174 52.104C28.6334 53.256 28.5774 54.28 28.4494 55.176C28.3214 56.072 28.1694 56.52 27.9934 56.52C27.7214 56.52 27.3774 56.08 26.9614 55.2C26.5774 54.336 26.5294 53.904 26.8174 53.904C26.9774 53.904 27.0894 53.816 27.1534 53.64C27.2174 53.448 27.2814 53.056 27.3454 52.464C27.4254 51.904 27.4094 51.624 27.2974 51.624C27.1854 51.624 26.7454 52.064 25.9774 52.944C25.2094 53.824 24.8254 54.336 24.8254 54.48C24.8254 54.592 24.7774 54.672 24.6814 54.72C24.5854 54.752 24.4734 54.744 24.3454 54.696C24.2334 54.632 24.1294 54.544 24.0334 54.432C23.7134 54.016 23.7774 53.568 24.2254 53.088C24.5934 52.72 25.2094 51.768 26.0734 50.232C26.9374 48.68 27.3294 47.856 27.2494 47.76C27.1854 47.696 26.8334 47.856 26.1934 48.24C24.8814 49.04 23.7774 49.088 22.8814 48.384C22.5134 48.112 22.3374 47.912 22.3534 47.784C22.3534 47.528 23.0814 47.048 24.5374 46.344C25.1934 46.04 25.7454 45.72 26.1934 45.384C26.6414 45.032 27.0334 44.744 27.3694 44.52L27.8974 44.184L27.8014 42.816C27.7374 41.872 27.7774 41.016 27.9214 40.248C28.0814 39.48 28.0974 38.992 27.9694 38.784C27.8414 38.576 27.7774 38.448 27.7774 38.4ZM36.6334 43.248C36.6334 42.928 36.2174 43.048 35.3854 43.608C35.0014 43.896 34.7614 44.112 34.6654 44.256C34.5854 44.384 34.5294 44.68 34.4974 45.144C34.4334 45.784 34.2814 46.376 34.0414 46.92C33.8014 47.464 33.7134 47.768 33.7774 47.832C33.8414 47.88 33.9054 47.848 33.9694 47.736C35.7454 45.24 36.6334 43.744 36.6334 43.248ZM30.4174 46.176C30.5774 46.016 30.7214 45.856 30.8494 45.696C30.9774 45.536 31.0814 45.408 31.1614 45.312C31.2414 45.216 31.2654 45.168 31.2334 45.168C31.1694 45.12 30.9054 45.144 30.4414 45.24C30.1054 45.32 29.8894 45.4 29.7934 45.48C29.7134 45.56 29.6334 45.744 29.5534 46.032C29.4094 46.624 29.4014 46.92 29.5294 46.92C29.6414 46.936 29.9374 46.688 30.4174 46.176ZM37.7614 47.736C37.5694 47.512 37.3134 47.496 36.9934 47.688C36.6894 47.864 36.1134 48.352 35.2654 49.152C34.8814 49.52 34.4654 49.888 34.0174 50.256C33.5694 50.624 33.3454 50.848 33.3454 50.928C33.3454 51.008 33.8094 51.08 34.7374 51.144C35.6814 51.208 36.2494 51.208 36.4414 51.144C36.5854 51.096 36.8494 50.688 37.2334 49.92C37.6174 49.152 37.8254 48.632 37.8574 48.36C37.9054 48.072 37.8734 47.864 37.7614 47.736ZM32.6014 50.976C32.6014 50.832 32.5454 50.736 32.4334 50.688C32.3214 50.624 32.2254 50.64 32.1454 50.736C32.0494 50.848 32.0174 50.968 32.0494 51.096C32.0814 51.224 32.1694 51.28 32.3134 51.264C32.5054 51.232 32.6014 51.136 32.6014 50.976ZM34.2334 52.56C33.7694 52.48 33.4334 52.448 33.2254 52.464C33.0334 52.464 32.7614 52.512 32.4094 52.608C32.0894 52.704 31.9214 52.792 31.9054 52.872C31.8894 52.936 31.9934 53.128 32.2174 53.448C32.6334 54.024 33.1934 54.048 33.8974 53.52C34.2494 53.28 34.5134 53.128 34.6894 53.064C35.1214 52.904 35.1134 52.76 34.6654 52.632C34.5374 52.6 34.3934 52.576 34.2334 52.56ZM53.0588 37.968C53.4908 38.192 53.8428 38.488 54.1148 38.856C54.4028 39.224 54.5228 39.536 54.4748 39.792C54.4108 40.08 54.4348 40.296 54.5468 40.44C54.6588 40.584 54.8268 40.632 55.0508 40.584L55.8188 40.392C56.0588 40.328 56.3868 40.36 56.8028 40.488C57.2348 40.6 57.5308 40.752 57.6908 40.944C57.9148 41.2 57.9468 41.584 57.7868 42.096C57.6268 42.608 57.1788 43.52 56.4427 44.832C56.1548 45.312 56.0108 45.6 56.0108 45.696C56.0108 45.776 56.2988 45.848 56.8748 45.912C57.4508 45.976 57.8428 46.12 58.0508 46.344C58.2268 46.504 58.3148 46.624 58.3148 46.704C58.3148 46.768 58.2268 46.952 58.0508 47.256C57.8588 47.656 57.5388 47.96 57.0908 48.168C56.6588 48.36 56.0428 48.848 55.2428 49.632C54.4588 50.416 54.0668 50.92 54.0668 51.144C54.0668 51.256 54.2508 51.488 54.6188 51.84C54.9868 52.192 55.2988 52.656 55.5547 53.232C55.7468 53.776 56.0028 54.216 56.3228 54.552C56.6588 54.888 56.9628 55.056 57.2348 55.056C57.7148 55.056 58.1388 54.952 58.5068 54.744C58.8908 54.536 59.3468 54.128 59.8748 53.52C60.3708 52.992 60.6908 52.68 60.8348 52.584C60.9788 52.488 61.0908 52.504 61.1708 52.632C61.3468 52.84 61.4268 53.232 61.4108 53.808C61.4108 54.384 61.3308 54.84 61.1708 55.176C61.0108 55.528 60.7388 55.888 60.3548 56.256C59.9708 56.608 59.6108 56.848 59.2748 56.976C58.6828 57.184 57.9948 57.216 57.2108 57.072C56.4268 56.944 55.8028 56.68 55.3387 56.28C55.0508 56.056 54.7228 55.576 54.3548 54.84C54.0028 54.088 53.7548 53.368 53.6108 52.68C53.5468 52.376 53.4428 52.2 53.2988 52.152C53.1548 52.104 52.6508 52.464 51.7868 53.232C50.9068 54.032 49.9628 54.808 48.9548 55.56C47.9468 56.312 47.3388 56.688 47.1308 56.688C46.9228 56.688 46.8188 56.56 46.8188 56.304C46.8188 56.064 46.8748 55.768 46.9868 55.416C47.1148 55.064 47.2268 54.888 47.3228 54.888C47.5148 54.888 48.5388 53.944 50.3948 52.056C52.2508 50.168 53.1308 49.176 53.0348 49.08C53.0028 49.016 52.6508 49.16 51.9788 49.512C51.3228 49.848 50.7468 50.168 50.2508 50.472C49.2588 51.112 48.6108 51.256 48.3068 50.904C48.2108 50.744 48.2588 50.416 48.4508 49.92C48.6428 49.52 48.8108 49.248 48.9548 49.104C49.0988 48.96 49.3228 48.84 49.6268 48.744C50.2188 48.552 50.7868 48.16 51.3308 47.568C51.8908 46.976 52.0908 46.52 51.9308 46.2C51.8188 45.976 51.7628 45.76 51.7628 45.552C51.7628 45.392 51.6188 45.216 51.3308 45.024C51.0588 44.816 50.8108 44.712 50.5868 44.712C50.4588 44.712 50.0908 44.848 49.4828 45.12C48.3628 45.664 47.5628 45.776 47.0828 45.456C46.8748 45.328 46.7388 45.128 46.6748 44.856C46.6108 44.584 46.6348 44.296 46.7467 43.992C46.7788 43.928 46.8108 43.888 46.8428 43.872C46.8748 43.84 46.9068 43.84 46.9388 43.872C46.9868 43.904 47.0588 43.976 47.1548 44.088C47.2668 44.232 47.3788 44.32 47.4908 44.352C47.6028 44.368 47.7788 44.36 48.0188 44.328C48.3068 44.28 48.9068 43.992 49.8188 43.464C50.7468 42.936 51.3468 42.536 51.6188 42.264C51.8428 42.056 52.0268 41.632 52.1708 40.992C52.3308 40.352 52.4108 39.704 52.4108 39.048C52.4108 38.28 52.4108 37.856 52.4108 37.776C52.4108 37.696 52.6268 37.76 53.0588 37.968ZM55.7228 42.336C55.9308 41.952 56.0268 41.696 56.0108 41.568C55.9308 41.424 55.7628 41.368 55.5068 41.4C55.2668 41.432 54.9948 41.552 54.6908 41.76C54.3868 41.952 54.1868 42.144 54.0908 42.336C54.0108 42.48 53.9548 42.72 53.9228 43.056C53.8908 43.392 53.8828 43.696 53.8988 43.968C53.9148 44.24 53.9628 44.376 54.0428 44.376C54.1068 44.376 54.3468 44.128 54.7628 43.632C55.1948 43.136 55.5148 42.704 55.7228 42.336ZM71.3321 40.896C72.9641 40.048 73.8681 39.624 74.0441 39.624C74.2201 39.624 74.4921 39.752 74.8601 40.008C75.2921 40.312 75.4761 40.648 75.4121 41.016C75.3641 41.368 75.0041 42.096 74.3321 43.2C73.5641 44.48 73.1401 45.152 73.0601 45.216C72.9801 45.264 72.8841 45.376 72.7721 45.552C72.6761 45.728 72.5241 45.968 72.3161 46.272C72.1081 46.576 72.0521 46.784 72.1481 46.896C72.2281 46.944 72.4041 46.84 72.6761 46.584C72.9481 46.328 73.2761 45.968 73.6601 45.504C74.0441 45.024 74.4121 44.528 74.7641 44.016C75.2761 43.264 75.8521 42.544 76.4921 41.856C77.1481 41.168 77.4761 40.76 77.4761 40.632C77.4761 40.504 77.6521 40.368 78.0041 40.224C78.2281 40.128 78.4281 40.088 78.6041 40.104C78.7961 40.104 79.1161 40.168 79.5641 40.296C80.2841 40.504 80.6521 40.624 80.6681 40.656C80.7641 40.752 80.8121 40.912 80.8121 41.136C80.8121 41.36 80.7801 41.552 80.7161 41.712C80.5721 41.952 80.1561 42.432 79.4681 43.152C78.7961 43.872 78.4201 44.232 78.3401 44.232C78.2281 44.232 77.9401 44.472 77.4761 44.952C77.0281 45.416 76.8041 45.704 76.8041 45.816C76.8041 45.928 76.9721 46.2 77.3081 46.632C77.6441 47.032 77.9161 47.448 78.1241 47.88C78.3321 48.312 78.4361 48.632 78.4361 48.84C78.4361 49.048 78.2841 49.448 77.9801 50.04C77.7241 50.52 77.5721 51.008 77.5241 51.504C77.4921 52 77.5881 52.32 77.8121 52.464C78.0361 52.608 78.5241 52.664 79.2761 52.632C80.0441 52.584 80.6521 52.464 81.1001 52.272C81.5161 52.096 81.7961 51.888 81.9401 51.648C82.0841 51.408 82.2041 50.96 82.3001 50.304C82.4441 49.376 82.5961 48.776 82.7561 48.504L82.9481 48.144L83.1641 48.528C83.2921 48.784 83.3561 49.056 83.3561 49.344C83.3721 49.616 83.5641 50.048 83.9321 50.64C84.3001 51.264 84.5161 51.688 84.5801 51.912C84.6441 52.136 84.6281 52.424 84.5321 52.776C84.4521 53.096 84.3081 53.328 84.1001 53.472C83.9081 53.616 83.3641 53.864 82.4681 54.216C81.9721 54.408 81.5481 54.528 81.1961 54.576C80.8441 54.624 80.2601 54.648 79.4441 54.648C78.5161 54.664 77.9321 54.648 77.6921 54.6C77.4681 54.552 77.1881 54.408 76.8521 54.168C76.3721 53.832 76.0041 53.368 75.7481 52.776C75.5721 52.344 75.4761 52.056 75.4601 51.912C75.4441 51.768 75.4921 51.568 75.6041 51.312C75.8441 50.736 76.0521 49.944 76.2281 48.936C76.4041 47.928 76.4601 47.16 76.3961 46.632C76.3481 46.12 76.3641 45.704 76.4441 45.384C76.5401 45.064 76.8041 44.52 77.2361 43.752C77.3801 43.464 77.5001 43.088 77.5961 42.624C77.6921 42.16 77.7081 41.896 77.6441 41.832C77.5161 41.768 77.1481 42.136 76.5401 42.936C75.9321 43.72 75.4281 44.504 75.0281 45.288C74.4521 46.392 74.1001 47.024 73.9721 47.184C73.5721 47.712 73.3721 48.192 73.3721 48.624C73.3401 48.928 73.2521 49.44 73.1081 50.16L72.6281 52.44C72.3401 53.816 72.1001 54.664 71.9081 54.984C71.7321 55.304 71.4441 55.36 71.0441 55.152C70.7561 54.992 70.4041 54.664 69.9881 54.168C69.6201 53.736 69.2921 53.48 69.0041 53.4C68.7161 53.304 68.3881 53.368 68.0201 53.592C67.5081 53.912 67.1481 54.016 66.9401 53.904C66.7321 53.776 66.6281 53.4 66.6281 52.776C66.6281 52.504 66.6681 52.312 66.7481 52.2C66.8281 52.072 67.0441 51.896 67.3961 51.672C67.8921 51.352 68.6681 50.696 69.7241 49.704C70.7961 48.712 71.2841 48.176 71.1881 48.096C71.1081 48 70.9961 48.024 70.8521 48.168C70.7241 48.296 70.5481 48.36 70.3241 48.36C69.9401 48.36 69.6681 47.832 69.5081 46.776C69.4601 46.488 69.4521 46.28 69.4841 46.152C69.5321 46.024 69.6761 45.848 69.9161 45.624C70.3481 45.224 71.2521 44.072 72.6281 42.168C72.9161 41.768 73.1321 41.416 73.2761 41.112C73.4201 40.792 73.4521 40.6 73.3721 40.536C73.2441 40.472 72.9561 40.512 72.5081 40.656C72.0601 40.784 71.7081 40.952 71.4521 41.16C71.1481 41.4 70.7161 41.776 70.1561 42.288C69.6281 42.768 69.2281 43.056 68.9561 43.152C68.7001 43.232 68.3721 43.176 67.9721 42.984C67.5241 42.76 67.3001 42.568 67.3001 42.408C67.3161 42.248 67.5721 42.168 68.0681 42.168C68.3721 42.152 68.7401 42.064 69.1721 41.904C69.6041 41.728 70.3241 41.392 71.3321 40.896ZM70.5641 52.272C70.6761 52.272 70.7321 52.216 70.7321 52.104C70.7321 51.992 70.6761 51.936 70.5641 51.936C70.4681 51.936 70.4201 51.992 70.4201 52.104C70.4201 52.216 70.4681 52.272 70.5641 52.272ZM98.8215 39.48L99.5895 39.912C100.086 40.184 100.398 40.408 100.526 40.584C100.846 40.968 100.838 41.576 100.502 42.408C100.358 42.728 99.9495 43.248 99.2775 43.968C98.6055 44.672 98.0935 45.12 97.7415 45.312C97.1015 45.648 97.2135 46.056 98.0775 46.536C98.4455 46.744 98.7495 46.864 98.9895 46.896C99.2295 46.928 99.6775 46.936 100.334 46.92C101.326 46.872 102.102 46.792 102.662 46.68C103.03 46.584 103.302 46.552 103.478 46.584C103.654 46.6 103.934 46.712 104.318 46.92C104.75 47.144 105.078 47.376 105.302 47.616C105.542 47.856 105.638 48.056 105.59 48.216C105.526 48.36 104.822 48.448 103.478 48.48C102.214 48.512 101.334 48.616 100.838 48.792C100.342 48.968 100.094 49.264 100.094 49.68C100.094 50.064 100.182 50.656 100.358 51.456C100.662 52.72 100.574 53.568 100.094 54C99.8695 54.192 99.7575 54.352 99.7575 54.48C99.7575 54.752 99.6215 54.976 99.3495 55.152C99.0935 55.312 98.7255 55.4 98.2455 55.416C97.8615 55.432 97.5415 55.408 97.2855 55.344C97.0295 55.264 96.6375 55.088 96.1095 54.816C95.3255 54.416 94.6935 54.016 94.2135 53.616C93.7495 53.2 93.0535 52.752 92.1255 52.272C91.4855 51.968 91.0615 51.792 90.8535 51.744C90.6615 51.68 90.4535 51.696 90.2295 51.792C89.9575 51.888 89.7015 51.912 89.4615 51.864C89.2215 51.816 89.0695 51.688 89.0055 51.48C88.9255 51.224 88.8855 50.904 88.8855 50.52C88.9015 50.12 88.9495 49.888 89.0295 49.824C89.1255 49.728 89.5895 49.624 90.4215 49.512C91.2535 49.384 92.3175 49.12 93.6135 48.72C94.9095 48.32 95.6775 48.096 95.9175 48.048C96.1735 48 96.3015 47.92 96.3015 47.808C96.3015 47.712 96.2135 47.664 96.0375 47.664C95.7975 47.664 95.4695 47.528 95.0535 47.256C94.6535 46.984 94.4375 46.744 94.4055 46.536C94.3575 46.312 94.4295 46.096 94.6215 45.888C94.8295 45.664 95.0615 45.552 95.3175 45.552C95.7175 45.552 96.3735 44.76 97.2855 43.176C97.9575 42.008 98.2135 41.424 98.0535 41.424C97.9255 41.424 97.4935 41.664 96.7575 42.144C96.0215 42.608 95.5015 42.976 95.1975 43.248C94.7495 43.68 94.3815 43.968 94.0935 44.112C93.8055 44.24 93.6375 44.448 93.5895 44.736C93.5095 45.088 93.3575 45.256 93.1335 45.24C92.9255 45.208 92.7495 45.008 92.6055 44.64C92.2535 43.808 92.3175 42.984 92.7975 42.168L93.2535 41.448L93.4455 41.88L93.6135 42.264L94.4055 41.856L95.9895 40.992C96.4855 40.688 97.0775 40.368 97.7655 40.032L98.8215 39.48ZM97.8615 50.064C97.7495 49.76 97.2615 49.736 96.3975 49.992L94.3575 50.568C93.0775 50.92 92.4215 51.184 92.3895 51.36C92.3895 51.472 92.5175 51.6 92.7735 51.744C92.8695 51.808 92.9735 51.864 93.0855 51.912C93.9975 52.376 95.0455 52.608 96.2295 52.608C96.7575 52.608 97.1735 52.464 97.4775 52.176C97.7975 51.888 97.9575 51.504 97.9575 51.024C97.9575 50.576 97.9255 50.256 97.8615 50.064ZM120.215 45.36C120.439 45.344 120.775 45.424 121.223 45.6C121.671 45.76 121.951 45.92 122.063 46.08C122.303 46.416 122.311 46.904 122.087 47.544C121.863 48.184 121.487 48.712 120.959 49.128C120.591 49.432 120.359 49.68 120.263 49.872C120.167 50.048 120.183 50.216 120.311 50.376C120.439 50.52 121.031 50.56 122.087 50.496C123.687 50.384 124.943 50.624 125.855 51.216C126.271 51.472 126.359 51.888 126.119 52.464C126.039 52.656 125.799 52.744 125.399 52.728C124.999 52.712 124.551 52.592 124.055 52.368C123.687 52.192 123.423 52.104 123.263 52.104C123.103 52.088 122.863 52.136 122.543 52.248L121.871 52.464L121.751 53.712C121.655 54.896 121.415 55.76 121.031 56.304C120.647 56.848 120.023 57.2 119.159 57.36C118.183 57.536 117.575 57.616 117.335 57.6C117.095 57.584 116.671 57.424 116.063 57.12C115.295 56.72 114.783 56.352 114.527 56.016C114.271 55.664 113.911 55.248 113.447 54.768C113.111 54.448 112.911 54.216 112.847 54.072C112.783 53.912 112.759 53.672 112.775 53.352L112.847 52.632L113.639 52.56C114.023 52.496 114.583 52.352 115.319 52.128C116.055 51.904 116.695 51.664 117.239 51.408C117.415 51.328 117.527 51.232 117.575 51.12C117.639 51.008 117.671 50.824 117.671 50.568C117.671 50.2 117.735 49.832 117.863 49.464C118.007 49.08 118.175 48.808 118.367 48.648C118.575 48.472 118.663 48.352 118.631 48.288C118.615 48.208 118.479 48.184 118.223 48.216C117.871 48.296 117.527 48.216 117.191 47.976C116.855 47.736 116.687 47.456 116.687 47.136C116.687 46.816 116.783 46.656 116.975 46.656C117.167 46.64 117.727 46.424 118.655 46.008C119.583 45.592 120.103 45.376 120.215 45.36ZM119.327 52.56H118.775C118.487 52.576 117.871 52.768 116.927 53.136C115.983 53.504 115.415 53.784 115.223 53.976C115.127 54.072 115.087 54.168 115.103 54.264C115.135 54.36 115.279 54.536 115.535 54.792C116.063 55.32 116.615 55.6 117.191 55.632C117.783 55.648 118.335 55.408 118.847 54.912C119.055 54.72 119.183 54.544 119.231 54.384C119.295 54.208 119.327 53.92 119.327 53.52V52.56ZM113.039 44.136C113.359 43.592 113.599 43.64 113.759 44.28C113.967 45.272 113.863 46.144 113.447 46.896C113.175 47.456 112.999 48.08 112.919 48.768C112.887 49.232 112.839 49.528 112.775 49.656C112.727 49.784 112.639 49.848 112.511 49.848C112.287 49.848 112.047 49.624 111.791 49.176C111.551 48.728 111.431 48.288 111.431 47.856C111.431 47.2 111.967 45.96 113.039 44.136ZM115.223 38.568C115.223 38.472 115.287 38.44 115.415 38.472C115.495 38.52 115.719 38.624 116.087 38.784C116.583 38.992 116.975 39.304 117.263 39.72C117.567 40.12 117.647 40.464 117.503 40.752C117.391 40.96 117.247 41.048 117.071 41.016C116.943 41 116.599 40.624 116.039 39.888C115.495 39.152 115.223 38.712 115.223 38.568ZM122.783 37.68C123.295 37.952 123.559 38.24 123.575 38.544C123.607 38.832 123.415 39.224 122.999 39.72C122.615 40.184 122.447 40.448 122.495 40.512C122.559 40.56 122.807 40.528 123.239 40.416C123.687 40.304 124.087 40.32 124.439 40.464L125.447 40.872C126.247 41.192 126.031 41.736 124.799 42.504C124.703 42.568 124.599 42.632 124.487 42.696C124.087 42.92 123.495 43.176 122.711 43.464C121.943 43.736 121.431 43.872 121.175 43.872C120.919 43.872 120.623 43.952 120.287 44.112C119.903 44.32 119.719 44.36 119.735 44.232C119.751 44.056 120.039 43.792 120.599 43.44C121.671 42.784 122.311 42.296 122.519 41.976C122.567 41.928 122.559 41.896 122.495 41.88C122.239 41.88 121.551 42.16 120.431 42.72C119.311 43.28 118.519 43.744 118.055 44.112C117.367 44.656 116.783 44.952 116.303 45C115.839 45.032 115.423 44.816 115.055 44.352C114.687 43.904 114.559 43.592 114.671 43.416C114.703 43.368 114.783 43.376 114.911 43.44C115.023 43.52 115.439 43.44 116.159 43.2C117.375 42.816 118.575 42.28 119.759 41.592C120.111 41.4 120.255 41.296 120.191 41.28C120.031 41.216 119.807 41.248 119.519 41.376C119.311 41.456 119.087 41.528 118.847 41.592C118.607 41.64 118.407 41.672 118.247 41.688C118.103 41.704 118.023 41.696 118.007 41.664C118.007 41.584 118.383 41.304 119.135 40.824C119.727 40.456 120.231 40.056 120.647 39.624C121.079 39.176 121.327 38.792 121.391 38.472C121.503 38.056 121.407 37.84 121.103 37.824C120.703 37.84 120.407 38.08 120.215 38.544C120.023 38.96 119.831 39.176 119.639 39.192C119.447 39.208 119.199 39.032 118.895 38.664C118.527 38.232 118.343 37.92 118.343 37.728C118.343 37.584 118.383 37.496 118.463 37.464C118.559 37.432 118.655 37.48 118.751 37.608C118.815 37.736 118.959 37.808 119.183 37.824C119.423 37.84 119.655 37.792 119.879 37.68C120.151 37.536 120.519 37.44 120.983 37.392C121.463 37.344 121.743 37.32 121.823 37.32C121.919 37.304 122.239 37.424 122.783 37.68ZM143.072 41.04C144.112 40.592 144.904 40.624 145.448 41.136C145.608 41.312 145.68 41.432 145.664 41.496C145.648 41.56 145.512 41.728 145.256 42C144.904 42.368 144.728 42.616 144.728 42.744C144.728 42.872 144.464 43.072 143.936 43.344C143.408 43.6 143.016 43.896 142.76 44.232L142.4 44.736L142.976 45.048C143.424 45.24 143.6 45.48 143.504 45.768C143.424 46.056 142.984 46.616 142.184 47.448C141.064 48.584 140.528 49.288 140.576 49.56C140.608 49.64 140.696 49.648 140.84 49.584C141.016 49.52 141.104 49.44 141.104 49.344C141.104 49.232 141.168 49.176 141.296 49.176C141.472 49.176 141.784 49.008 142.232 48.672C142.68 48.32 142.904 48.08 142.904 47.952C142.904 47.808 143.008 47.648 143.216 47.472C143.408 47.28 143.736 47.224 144.2 47.304C144.68 47.368 145.064 47.544 145.352 47.832L145.784 48.192L144.872 49.056C144.456 49.456 144.08 49.864 143.744 50.28C143.408 50.696 143.24 50.96 143.24 51.072C143.24 51.152 143.4 51.384 143.72 51.768C143.992 52.04 144.136 52.264 144.152 52.44C144.184 52.6 144.176 53.024 144.128 53.712L144.008 55.056L144.56 55.32C144.928 55.528 145.536 55.608 146.384 55.56C147.264 55.496 147.816 55.36 148.04 55.152C148.28 54.928 148.4 54.408 148.4 53.592C148.384 52.968 148.416 52.632 148.496 52.584C148.592 52.52 148.864 52.664 149.312 53.016C149.536 53.192 149.784 53.552 150.056 54.096C150.328 54.624 150.464 55.016 150.464 55.272C150.464 55.528 150.36 55.816 150.152 56.136C149.944 56.44 149.696 56.656 149.408 56.784C149.072 56.96 148.4 57.08 147.392 57.144C146.784 57.208 146.312 57.216 145.976 57.168C145.656 57.136 145.24 57.048 144.728 56.904C143.992 56.68 143.528 56.504 143.336 56.376C143.144 56.232 142.944 55.936 142.736 55.488C142.528 55.072 142.416 54.776 142.4 54.6C142.4 54.408 142.488 54.152 142.664 53.832C142.872 53.432 142.952 52.872 142.904 52.152C142.888 51.928 142.84 51.816 142.76 51.816C142.664 51.864 141.992 52.552 140.744 53.88C138.424 56.312 137.136 57.48 136.88 57.384C136.848 57.352 136.832 57.296 136.832 57.216C136.832 57.088 137.256 56.504 138.104 55.464C138.76 54.616 139.424 53.704 140.096 52.728C140.784 51.752 141.096 51.24 141.032 51.192C140.968 51.144 140.76 51.264 140.408 51.552C139.592 52.208 138.8 52.792 138.032 53.304C137.28 53.816 136.856 54.048 136.76 54C136.584 53.952 136.464 53.784 136.4 53.496C136.336 53.192 136.256 52.952 136.16 52.776C136.08 52.6 136.112 52.424 136.256 52.248C136.4 52.056 136.584 51.96 136.808 51.96C137.08 51.96 137.568 51.536 138.272 50.688C138.992 49.84 139.552 49.016 139.952 48.216C140.224 47.656 140.288 47.376 140.144 47.376C140.064 47.376 139.952 47.448 139.808 47.592C139.568 47.816 139.36 47.896 139.184 47.832C139.008 47.768 138.832 47.552 138.656 47.184C138.496 46.832 138.408 46.616 138.392 46.536C138.376 46.456 138.448 46.36 138.608 46.248C138.784 46.12 138.984 46.072 139.208 46.104C139.672 46.232 140.296 45.904 141.08 45.12C141.48 44.72 141.912 44.16 142.376 43.44C142.856 42.704 143.08 42.264 143.048 42.12C143 42.04 142.848 42.048 142.592 42.144C142.352 42.24 142.08 42.392 141.776 42.6C141.472 42.792 141.24 42.976 141.08 43.152C140.776 43.536 140.456 43.8 140.12 43.944C139.896 44.024 139.736 44.064 139.64 44.064C139.56 44.048 139.448 43.984 139.304 43.872C139.128 43.712 138.968 43.632 138.824 43.632C138.696 43.616 138.624 43.68 138.608 43.824C138.576 44.032 138.496 44.416 138.368 44.976C138.288 45.424 138.256 45.696 138.272 45.792C138.288 45.824 138.28 45.848 138.248 45.864C138.216 45.88 138.176 45.888 138.128 45.888C138 45.888 137.968 46.184 138.032 46.776C138.112 47.368 138.088 47.712 137.96 47.808C137.816 47.888 137.64 47.864 137.432 47.736C137.24 47.608 137.08 47.4 136.952 47.112L136.664 46.536L135.584 47.448C134.896 48.024 134.496 48.336 134.384 48.384C134.208 48.432 134.016 48.88 133.808 49.728C133.616 50.576 133.496 51.392 133.448 52.176C133.416 52.576 133.4 52.92 133.4 53.208C133.4 53.48 133.416 53.616 133.448 53.616C133.624 53.616 133.936 52.952 134.384 51.624C134.624 50.936 134.784 50.536 134.864 50.424C134.976 50.296 135.024 50.32 135.008 50.496C134.992 50.672 134.912 50.952 134.768 51.336C134.576 51.816 134.408 52.568 134.264 53.592C133.992 55.384 133.632 56.288 133.184 56.304C132.944 56.32 132.64 56.104 132.272 55.656C132.032 55.352 131.88 55.128 131.816 54.984C131.768 54.84 131.784 54.696 131.864 54.552C132.008 54.232 132.152 52.976 132.296 50.784C132.456 48.592 132.48 47.184 132.368 46.56C132.352 46.384 132.36 46.264 132.392 46.2C132.44 46.136 132.536 46.096 132.68 46.08C132.968 46.048 133.264 46.152 133.568 46.392C134.016 46.728 134.232 46.792 134.216 46.584C134.216 46.424 134.04 46.176 133.688 45.84C133.192 45.376 132.904 45.04 132.824 44.832C132.792 44.704 132.72 44.632 132.608 44.616C132.496 44.584 132.296 44.584 132.008 44.616C131.576 44.664 131.296 44.664 131.168 44.616C131.056 44.552 130.896 44.368 130.688 44.064C130.496 43.76 130.408 43.56 130.424 43.464C130.44 43.352 130.592 43.328 130.88 43.392C131.168 43.44 131.464 43.344 131.768 43.104C132.088 42.864 132.36 42.504 132.584 42.024C132.728 41.72 132.856 41.528 132.968 41.448C133.08 41.352 133.304 41.28 133.64 41.232C134.136 41.168 134.544 41.168 134.864 41.232L135.368 41.328L135.296 43.08L135.176 44.808L135.992 45.096L136.856 45.336L137.168 44.88C137.36 44.544 137.56 44.056 137.768 43.416C137.976 42.728 138.168 42.4 138.344 42.432C138.424 42.464 138.488 42.552 138.536 42.696C138.632 42.952 138.904 43.032 139.352 42.936C139.8 42.824 140.336 42.568 140.96 42.168C141.76 41.672 142.464 41.296 143.072 41.04ZM140.72 38.304C140.704 38.176 140.696 38.048 140.696 37.92C140.696 37.792 140.696 37.696 140.696 37.632C140.696 37.568 140.704 37.536 140.72 37.536C140.752 37.536 140.928 37.608 141.248 37.752C141.616 37.96 141.928 38.24 142.184 38.592C142.44 38.928 142.568 39.264 142.568 39.6C142.568 39.872 142.544 40.032 142.496 40.08C142.448 40.128 142.296 40.128 142.04 40.08C141.672 40.016 141.288 39.944 140.888 39.864C140.552 39.816 140.352 39.76 140.288 39.696C140.24 39.616 140.32 39.488 140.528 39.312C140.72 39.168 140.784 38.832 140.72 38.304Z" fill="black"/>
<path d="M3.654 6.224L3.6 6.872L3.816 6.53L9.126 0.985999H11.394L6.012 6.584L11.7 14H9.486L4.734 7.682L3.636 8.744L3.654 14H1.872V0.985999H3.654V6.224ZM12.8686 10.202C12.8686 9.458 13.0426 8.786 13.3906 8.186C13.7506 7.586 14.2426 7.112 14.8666 6.764C15.4906 6.416 16.2046 6.242 17.0086 6.242C17.8126 6.242 18.5206 6.416 19.1326 6.764C19.7446 7.112 20.2186 7.586 20.5546 8.186C20.9026 8.786 21.0766 9.458 21.0766 10.202C21.0766 10.946 20.9026 11.618 20.5546 12.218C20.2186 12.818 19.7386 13.298 19.1146 13.658C18.5026 14.006 17.7886 14.18 16.9726 14.18C16.1806 14.18 15.4726 14.018 14.8486 13.694C14.2366 13.37 13.7506 12.908 13.3906 12.308C13.0426 11.708 12.8686 11.006 12.8686 10.202ZM14.5606 10.22C14.5606 10.7 14.6626 11.138 14.8666 11.534C15.0826 11.918 15.3706 12.224 15.7306 12.452C16.0906 12.68 16.4986 12.794 16.9546 12.794C17.4226 12.794 17.8366 12.68 18.1966 12.452C18.5566 12.224 18.8386 11.918 19.0426 11.534C19.2586 11.138 19.3666 10.7 19.3666 10.22C19.3666 9.74 19.2586 9.308 19.0426 8.924C18.8386 8.528 18.5566 8.216 18.1966 7.988C17.8366 7.748 17.4226 7.628 16.9546 7.628C16.4986 7.628 16.0846 7.748 15.7126 7.988C15.3526 8.228 15.0706 8.546 14.8666 8.942C14.6626 9.326 14.5606 9.752 14.5606 10.22ZM24.8372 6.548L24.9452 7.988C25.1972 7.46 25.5872 7.04 26.1152 6.728C26.6432 6.416 27.2552 6.26 27.9512 6.26C28.6472 6.26 29.2172 6.47 29.6612 6.89C30.1172 7.298 30.3572 7.832 30.3812 8.492V14H28.6892V9.068C28.6652 8.672 28.5392 8.348 28.3112 8.096C28.0952 7.844 27.7532 7.712 27.2852 7.7C26.6372 7.7 26.0912 7.964 25.6472 8.492C25.2152 9.008 24.9992 9.68 24.9992 10.508V14H23.3252V6.548H24.8372ZM33.8864 14V8.042H32.6084V6.53H33.8864V3.398C33.8864 2.318 34.1324 1.49 34.6244 0.913999C35.1164 0.337999 35.8364 0.0499994 36.7844 0.0499994C37.0244 0.0499994 37.2944 0.0859993 37.5944 0.157999C37.9064 0.23 38.1824 0.344 38.4224 0.499999L37.7024 1.724C37.5944 1.616 37.4744 1.544 37.3424 1.508C37.2104 1.46 37.0784 1.436 36.9464 1.436C36.5144 1.436 36.1724 1.586 35.9204 1.886C35.6804 2.186 35.5604 2.696 35.5604 3.416V6.53H37.9364V8.042H35.5604V14H33.8864ZM42.4883 14.288C41.8043 14.288 41.2403 14.084 40.7963 13.676C40.3523 13.256 40.1243 12.716 40.1123 12.056V6.548H41.7863V11.462C41.8103 11.87 41.9303 12.2 42.1463 12.452C42.3623 12.704 42.6983 12.836 43.1543 12.848C43.5623 12.848 43.9343 12.728 44.2703 12.488C44.6063 12.236 44.8703 11.9 45.0623 11.48C45.2663 11.048 45.3683 10.562 45.3683 10.022V6.548H47.0423V14H45.5303L45.4043 12.596C45.1643 13.088 44.7803 13.496 44.2523 13.82C43.7363 14.132 43.1483 14.288 42.4883 14.288ZM45.6563 2.732L43.3703 5.144H42.2903L43.7843 2.732H45.6563ZM52.062 14.144C51.522 14.144 51 14.054 50.496 13.874C50.004 13.682 49.596 13.4 49.272 13.028L49.992 12.056C50.292 12.356 50.61 12.584 50.946 12.74C51.282 12.884 51.606 12.956 51.918 12.956C52.278 12.956 52.59 12.884 52.854 12.74C53.13 12.596 53.268 12.35 53.268 12.002C53.268 11.738 53.178 11.528 52.998 11.372C52.83 11.216 52.608 11.096 52.332 11.012C52.068 10.916 51.792 10.82 51.504 10.724C50.232 10.316 49.596 9.59 49.596 8.546C49.596 8.162 49.692 7.796 49.884 7.448C50.088 7.1 50.382 6.818 50.766 6.602C51.162 6.386 51.648 6.278 52.224 6.278C52.74 6.278 53.202 6.344 53.61 6.476C54.018 6.608 54.402 6.818 54.762 7.106L54.096 8.132C53.88 7.916 53.622 7.754 53.322 7.646C53.034 7.526 52.77 7.46 52.53 7.448C52.206 7.448 51.918 7.526 51.666 7.682C51.426 7.838 51.306 8.054 51.306 8.33C51.294 8.582 51.372 8.786 51.54 8.942C51.708 9.086 51.924 9.206 52.188 9.302C52.464 9.398 52.74 9.488 53.016 9.572C53.556 9.752 54.012 9.998 54.384 10.31C54.768 10.622 54.96 11.078 54.96 11.678C54.96 12.35 54.72 12.932 54.24 13.424C53.76 13.904 53.034 14.144 52.062 14.144ZM57.3037 6.548H58.9777V14H57.3037V6.548ZM60.2197 2.966L57.9337 5.378H56.8537L58.3477 2.966H60.2197ZM64.2676 14.288C63.5836 14.288 63.0196 14.084 62.5756 13.676C62.1316 13.256 61.9036 12.716 61.8916 12.056V6.548H63.5656V11.462C63.5896 11.87 63.7096 12.2 63.9256 12.452C64.1416 12.704 64.4776 12.836 64.9336 12.848C65.3416 12.848 65.7136 12.728 66.0496 12.488C66.3856 12.236 66.6496 11.9 66.8416 11.48C67.0456 11.048 67.1476 10.562 67.1476 10.022V6.548H68.8216V14H67.3096L67.1836 12.596C66.9436 13.088 66.5596 13.496 66.0316 13.82C65.5156 14.132 64.9276 14.288 64.2676 14.288ZM73.8413 14.144C73.3013 14.144 72.7793 14.054 72.2753 13.874C71.7833 13.682 71.3753 13.4 71.0513 13.028L71.7713 12.056C72.0713 12.356 72.3893 12.584 72.7253 12.74C73.0613 12.884 73.3853 12.956 73.6973 12.956C74.0573 12.956 74.3693 12.884 74.6333 12.74C74.9093 12.596 75.0473 12.35 75.0473 12.002C75.0473 11.738 74.9573 11.528 74.7773 11.372C74.6093 11.216 74.3873 11.096 74.1113 11.012C73.8473 10.916 73.5713 10.82 73.2833 10.724C72.0113 10.316 71.3753 9.59 71.3753 8.546C71.3753 8.162 71.4713 7.796 71.6633 7.448C71.8673 7.1 72.1613 6.818 72.5453 6.602C72.9413 6.386 73.4273 6.278 74.0033 6.278C74.5193 6.278 74.9813 6.344 75.3893 6.476C75.7973 6.608 76.1813 6.818 76.5413 7.106L75.8753 8.132C75.6593 7.916 75.4013 7.754 75.1013 7.646C74.8133 7.526 74.5493 7.46 74.3093 7.448C73.9853 7.448 73.6973 7.526 73.4453 7.682C73.2053 7.838 73.0853 8.054 73.0853 8.33C73.0733 8.582 73.1513 8.786 73.3193 8.942C73.4873 9.086 73.7033 9.206 73.9673 9.302C74.2433 9.398 74.5193 9.488 74.7953 9.572C75.3353 9.752 75.7913 9.998 76.1633 10.31C76.5473 10.622 76.7393 11.078 76.7393 11.678C76.7393 12.35 76.4993 12.932 76.0193 13.424C75.5393 13.904 74.8133 14.144 73.8413 14.144ZM82.197 14.18C81.489 14.18 80.847 14.03 80.271 13.73C79.707 13.43 79.257 12.992 78.921 12.416C78.597 11.828 78.435 11.114 78.435 10.274C78.435 9.434 78.603 8.714 78.939 8.114C79.287 7.514 79.749 7.052 80.325 6.728C80.913 6.404 81.555 6.242 82.251 6.242C82.923 6.242 83.493 6.386 83.961 6.674C84.429 6.962 84.795 7.31 85.059 7.718L85.185 6.548H86.733V14H85.059V12.776C84.915 12.968 84.705 13.172 84.429 13.388C84.165 13.604 83.841 13.79 83.457 13.946C83.085 14.102 82.665 14.18 82.197 14.18ZM82.647 12.794C83.259 12.794 83.781 12.626 84.213 12.29C84.645 11.942 84.927 11.474 85.059 10.886V9.41C84.915 8.894 84.615 8.468 84.159 8.132C83.703 7.796 83.181 7.628 82.593 7.628C82.137 7.628 81.723 7.736 81.351 7.952C80.979 8.168 80.679 8.468 80.451 8.852C80.235 9.236 80.127 9.68 80.127 10.184C80.127 10.676 80.241 11.12 80.469 11.516C80.697 11.9 81.003 12.212 81.387 12.452C81.771 12.68 82.191 12.794 82.647 12.794ZM91.1415 6.548L91.2675 8.294C91.4715 7.874 91.7535 7.514 92.1135 7.214C92.4735 6.902 92.8455 6.668 93.2295 6.512C93.6255 6.344 93.9675 6.254 94.2555 6.242L94.1835 7.916C93.6195 7.892 93.1215 8.006 92.6895 8.258C92.2575 8.498 91.9215 8.828 91.6815 9.248C91.4415 9.668 91.3215 10.118 91.3215 10.598V14H89.6475V6.548H91.1415ZM98.521 14.144C97.981 14.144 97.459 14.054 96.955 13.874C96.463 13.682 96.055 13.4 95.731 13.028L96.451 12.056C96.751 12.356 97.069 12.584 97.405 12.74C97.741 12.884 98.065 12.956 98.377 12.956C98.737 12.956 99.049 12.884 99.313 12.74C99.589 12.596 99.727 12.35 99.727 12.002C99.727 11.738 99.637 11.528 99.457 11.372C99.289 11.216 99.067 11.096 98.791 11.012C98.527 10.916 98.251 10.82 97.963 10.724C96.691 10.316 96.055 9.59 96.055 8.546C96.055 8.162 96.151 7.796 96.343 7.448C96.547 7.1 96.841 6.818 97.225 6.602C97.621 6.386 98.107 6.278 98.683 6.278C99.199 6.278 99.661 6.344 100.069 6.476C100.477 6.608 100.861 6.818 101.221 7.106L100.555 8.132C100.339 7.916 100.081 7.754 99.781 7.646C99.493 7.526 99.229 7.46 98.989 7.448C98.665 7.448 98.377 7.526 98.125 7.682C97.885 7.838 97.765 8.054 97.765 8.33C97.753 8.582 97.831 8.786 97.999 8.942C98.167 9.086 98.383 9.206 98.647 9.302C98.923 9.398 99.199 9.488 99.475 9.572C100.015 9.752 100.471 9.998 100.843 10.31C101.227 10.622 101.419 11.078 101.419 11.678C101.419 12.35 101.179 12.932 100.699 13.424C100.219 13.904 99.493 14.144 98.521 14.144ZM104.483 3.272H106.175V6.566H108.209V7.898H106.175V14H104.483V7.898H103.115V6.566H104.483V3.272ZM109.601 10.202C109.601 9.458 109.775 8.786 110.123 8.186C110.483 7.586 110.975 7.112 111.599 6.764C112.223 6.416 112.937 6.242 113.741 6.242C114.545 6.242 115.253 6.416 115.865 6.764C116.477 7.112 116.951 7.586 117.287 8.186C117.635 8.786 117.809 9.458 117.809 10.202C117.809 10.946 117.635 11.618 117.287 12.218C116.951 12.818 116.471 13.298 115.847 13.658C115.235 14.006 114.521 14.18 113.705 14.18C112.913 14.18 112.205 14.018 111.581 13.694C110.969 13.37 110.483 12.908 110.123 12.308C109.775 11.708 109.601 11.006 109.601 10.202ZM111.293 10.22C111.293 10.7 111.395 11.138 111.599 11.534C111.815 11.918 112.103 12.224 112.463 12.452C112.823 12.68 113.231 12.794 113.687 12.794C114.155 12.794 114.569 12.68 114.929 12.452C115.289 12.224 115.571 11.918 115.775 11.534C115.991 11.138 116.099 10.7 116.099 10.22C116.099 9.74 115.991 9.308 115.775 8.924C115.571 8.528 115.289 8.216 114.929 7.988C114.569 7.748 114.155 7.628 113.687 7.628C113.231 7.628 112.817 7.748 112.445 7.988C112.085 8.228 111.803 8.546 111.599 8.942C111.395 9.326 111.293 9.752 111.293 10.22ZM120.67 14V8.042H119.392V6.53H120.67V3.398C120.67 2.318 120.916 1.49 121.408 0.913999C121.9 0.337999 122.62 0.0499994 123.568 0.0499994C123.808 0.0499994 124.078 0.0859993 124.378 0.157999C124.69 0.23 124.966 0.344 125.206 0.499999L124.486 1.724C124.378 1.616 124.258 1.544 124.126 1.508C123.994 1.46 123.862 1.436 123.73 1.436C123.298 1.436 122.956 1.586 122.704 1.886C122.464 2.186 122.344 2.696 122.344 3.416V6.53H124.72V8.042H122.344V14H120.67ZM128.408 6.548L128.516 7.988C128.768 7.46 129.158 7.04 129.686 6.728C130.214 6.416 130.826 6.26 131.522 6.26C132.218 6.26 132.788 6.47 133.232 6.89C133.688 7.298 133.928 7.832 133.952 8.492V14H132.26V9.068C132.236 8.672 132.11 8.348 131.882 8.096C131.666 7.844 131.324 7.712 130.856 7.7C130.208 7.7 129.662 7.964 129.218 8.492C128.786 9.008 128.57 9.68 128.57 10.508V14H126.896V6.548H128.408ZM139.221 14.288C138.537 14.288 137.973 14.084 137.529 13.676C137.085 13.256 136.857 12.716 136.845 12.056V6.548H138.519V11.462C138.543 11.87 138.663 12.2 138.879 12.452C139.095 12.704 139.431 12.836 139.887 12.848C140.295 12.848 140.667 12.728 141.003 12.488C141.339 12.236 141.603 11.9 141.795 11.48C141.999 11.048 142.101 10.562 142.101 10.022V6.548H143.775V14H142.263L142.137 12.596C141.897 13.088 141.513 13.496 140.985 13.82C140.469 14.132 139.881 14.288 139.221 14.288ZM148.2 6.548L148.308 7.988C148.56 7.46 148.95 7.04 149.478 6.728C150.006 6.416 150.618 6.26 151.314 6.26C152.01 6.26 152.58 6.47 153.024 6.89C153.48 7.298 153.72 7.832 153.744 8.492V14H152.052V9.068C152.028 8.672 151.902 8.348 151.674 8.096C151.458 7.844 151.116 7.712 150.648 7.7C150 7.7 149.454 7.964 149.01 8.492C148.578 9.008 148.362 9.68 148.362 10.508V14H146.688V6.548H148.2ZM156.638 6.548H158.312V14H156.638V6.548ZM156.512 3.866C156.512 3.59 156.614 3.368 156.818 3.2C157.034 3.02 157.268 2.93 157.52 2.93C157.772 2.93 158 3.02 158.204 3.2C158.408 3.368 158.51 3.59 158.51 3.866C158.51 4.142 158.408 4.37 158.204 4.55C158 4.718 157.772 4.802 157.52 4.802C157.268 4.802 157.034 4.718 156.818 4.55C156.614 4.37 156.512 4.142 156.512 3.866ZM162.738 6.548L162.846 7.988C163.098 7.46 163.488 7.04 164.016 6.728C164.544 6.416 165.156 6.26 165.852 6.26C166.548 6.26 167.118 6.47 167.562 6.89C168.018 7.298 168.258 7.832 168.282 8.492V14H166.59V9.068C166.566 8.672 166.44 8.348 166.212 8.096C165.996 7.844 165.654 7.712 165.186 7.7C164.538 7.7 163.992 7.964 163.548 8.492C163.116 9.008 162.9 9.68 162.9 10.508V14H161.226V6.548H162.738Z" fill="black"/>
<path d="M13.158 32.414L3.6 22.73L3.636 32H1.872V18.59H1.962L11.502 28.418L11.466 18.986H13.212V32.414H13.158ZM15.892 28.202C15.892 27.458 16.066 26.786 16.414 26.186C16.774 25.586 17.266 25.112 17.89 24.764C18.514 24.416 19.228 24.242 20.032 24.242C20.836 24.242 21.544 24.416 22.156 24.764C22.768 25.112 23.242 25.586 23.578 26.186C23.926 26.786 24.1 27.458 24.1 28.202C24.1 28.946 23.926 29.618 23.578 30.218C23.242 30.818 22.762 31.298 22.138 31.658C21.526 32.006 20.812 32.18 19.996 32.18C19.204 32.18 18.496 32.018 17.872 31.694C17.26 31.37 16.774 30.908 16.414 30.308C16.066 29.708 15.892 29.006 15.892 28.202ZM17.584 28.22C17.584 28.7 17.686 29.138 17.89 29.534C18.106 29.918 18.394 30.224 18.754 30.452C19.114 30.68 19.522 30.794 19.978 30.794C20.446 30.794 20.86 30.68 21.22 30.452C21.58 30.224 21.862 29.918 22.066 29.534C22.282 29.138 22.39 28.7 22.39 28.22C22.39 27.74 22.282 27.308 22.066 26.924C21.862 26.528 21.58 26.216 21.22 25.988C20.86 25.748 20.446 25.628 19.978 25.628C19.522 25.628 19.108 25.748 18.736 25.988C18.376 26.228 18.094 26.546 17.89 26.942C17.686 27.326 17.584 27.752 17.584 28.22ZM27.8426 24.548L27.9686 26.294C28.1726 25.874 28.4546 25.514 28.8146 25.214C29.1746 24.902 29.5466 24.668 29.9306 24.512C30.3266 24.344 30.6686 24.254 30.9566 24.242L30.8846 25.916C30.3206 25.892 29.8226 26.006 29.3906 26.258C28.9586 26.498 28.6226 26.828 28.3826 27.248C28.1426 27.668 28.0226 28.118 28.0226 28.598V32H26.3486V24.548H27.8426ZM36.4102 32.18C35.6782 32.18 35.0122 32.018 34.4122 31.694C33.8122 31.37 33.3382 30.908 32.9902 30.308C32.6422 29.708 32.4682 29.006 32.4682 28.202C32.4682 27.458 32.6302 26.786 32.9542 26.186C33.2902 25.586 33.7342 25.112 34.2862 24.764C34.8502 24.416 35.4802 24.242 36.1762 24.242C36.7162 24.242 37.1962 24.362 37.6162 24.602C38.0362 24.842 38.3902 25.148 38.6782 25.52C38.4982 24.764 38.2342 24.056 37.8862 23.396C37.5382 22.736 37.1182 22.118 36.6262 21.542L35.0602 22.514L34.5022 21.398L35.7622 20.606C35.3302 20.174 34.8442 19.742 34.3042 19.31L35.5102 18.212C36.1102 18.62 36.6862 19.112 37.2382 19.688L38.7502 18.752L39.3082 19.85L38.0482 20.642C38.8402 21.65 39.4762 22.766 39.9562 23.99C40.4362 25.202 40.6762 26.39 40.6762 27.554C40.6762 28.346 40.5022 29.096 40.1542 29.804C39.8182 30.5 39.3322 31.07 38.6962 31.514C38.0722 31.958 37.3102 32.18 36.4102 32.18ZM36.5542 30.794C37.0222 30.794 37.4362 30.68 37.7962 30.452C38.1562 30.224 38.4382 29.918 38.6422 29.534C38.8582 29.138 38.9662 28.7 38.9662 28.22C38.9662 27.74 38.8582 27.308 38.6422 26.924C38.4382 26.528 38.1562 26.216 37.7962 25.988C37.4362 25.748 37.0222 25.628 36.5542 25.628C36.0982 25.628 35.6842 25.748 35.3122 25.988C34.9522 26.228 34.6702 26.546 34.4662 26.942C34.2622 27.326 34.1602 27.752 34.1602 28.22C34.1602 28.7 34.2622 29.138 34.4662 29.534C34.6822 29.918 34.9702 30.224 35.3302 30.452C35.6902 30.68 36.0982 30.794 36.5542 30.794ZM45.3008 32.288C44.6168 32.288 44.0528 32.084 43.6088 31.676C43.1648 31.256 42.9368 30.716 42.9248 30.056V24.548H44.5988V29.462C44.6228 29.87 44.7428 30.2 44.9588 30.452C45.1748 30.704 45.5108 30.836 45.9668 30.848C46.3748 30.848 46.7468 30.728 47.0828 30.488C47.4188 30.236 47.6828 29.9 47.8748 29.48C48.0788 29.048 48.1808 28.562 48.1808 28.022V24.548H49.8548V32H48.3428L48.2168 30.596C47.9768 31.088 47.5928 31.496 47.0648 31.82C46.5488 32.132 45.9608 32.288 45.3008 32.288ZM54.2625 24.548L54.3885 26.294C54.5925 25.874 54.8745 25.514 55.2345 25.214C55.5945 24.902 55.9665 24.668 56.3505 24.512C56.7465 24.344 57.0885 24.254 57.3765 24.242L57.3045 25.916C56.7405 25.892 56.2425 26.006 55.8105 26.258C55.3785 26.498 55.0425 26.828 54.8025 27.248C54.5625 27.668 54.4425 28.118 54.4425 28.598V32H52.7685V24.548H54.2625ZM59.5361 18.05H61.2101V32H59.5361V18.05ZM64.232 35.582L63.224 34.538C63.56 34.25 63.824 33.896 64.016 33.476C64.208 33.056 64.304 32.558 64.304 31.982V24.548H65.996V32.036C65.996 32.888 65.852 33.602 65.564 34.178C65.288 34.766 64.844 35.234 64.232 35.582ZM64.178 21.866C64.178 21.59 64.28 21.368 64.484 21.2C64.7 21.02 64.934 20.93 65.186 20.93C65.438 20.93 65.666 21.02 65.87 21.2C66.074 21.368 66.176 21.59 66.176 21.866C66.176 22.142 66.074 22.37 65.87 22.55C65.666 22.718 65.438 22.802 65.186 22.802C64.934 22.802 64.7 22.718 64.484 22.55C64.28 22.37 64.178 22.142 64.178 21.866ZM68.1518 28.202C68.1518 27.458 68.3258 26.786 68.6738 26.186C69.0338 25.586 69.5258 25.112 70.1498 24.764C70.7738 24.416 71.4878 24.242 72.2918 24.242C73.0958 24.242 73.8038 24.416 74.4158 24.764C75.0278 25.112 75.5018 25.586 75.8378 26.186C76.1858 26.786 76.3598 27.458 76.3598 28.202C76.3598 28.946 76.1858 29.618 75.8378 30.218C75.5018 30.818 75.0218 31.298 74.3978 31.658C73.7858 32.006 73.0718 32.18 72.2558 32.18C71.4638 32.18 70.7558 32.018 70.1318 31.694C69.5198 31.37 69.0338 30.908 68.6738 30.308C68.3258 29.708 68.1518 29.006 68.1518 28.202ZM69.8438 28.22C69.8438 28.7 69.9458 29.138 70.1498 29.534C70.3658 29.918 70.6538 30.224 71.0138 30.452C71.3738 30.68 71.7818 30.794 72.2378 30.794C72.7058 30.794 73.1198 30.68 73.4798 30.452C73.8398 30.224 74.1218 29.918 74.3258 29.534C74.5418 29.138 74.6498 28.7 74.6498 28.22C74.6498 27.74 74.5418 27.308 74.3258 26.924C74.1218 26.528 73.8398 26.216 73.4798 25.988C73.1198 25.748 72.7058 25.628 72.2378 25.628C71.7818 25.628 71.3678 25.748 70.9958 25.988C70.6358 26.228 70.3538 26.546 70.1498 26.942C69.9458 27.326 69.8438 27.752 69.8438 28.22ZM74.3078 20.732L72.0218 23.144H70.9418L72.4358 20.732H74.3078ZM80.7144 32.144C80.1744 32.144 79.6524 32.054 79.1484 31.874C78.6564 31.682 78.2484 31.4 77.9244 31.028L78.6444 30.056C78.9444 30.356 79.2624 30.584 79.5984 30.74C79.9344 30.884 80.2584 30.956 80.5704 30.956C80.9304 30.956 81.2424 30.884 81.5064 30.74C81.7824 30.596 81.9204 30.35 81.9204 30.002C81.9204 29.738 81.8304 29.528 81.6504 29.372C81.4824 29.216 81.2604 29.096 80.9844 29.012C80.7204 28.916 80.4444 28.82 80.1564 28.724C78.8844 28.316 78.2484 27.59 78.2484 26.546C78.2484 26.162 78.3444 25.796 78.5364 25.448C78.7404 25.1 79.0344 24.818 79.4184 24.602C79.8144 24.386 80.3004 24.278 80.8764 24.278C81.3924 24.278 81.8544 24.344 82.2624 24.476C82.6704 24.608 83.0544 24.818 83.4144 25.106L82.7484 26.132C82.5324 25.916 82.2744 25.754 81.9744 25.646C81.6864 25.526 81.4224 25.46 81.1824 25.448C80.8584 25.448 80.5704 25.526 80.3184 25.682C80.0784 25.838 79.9584 26.054 79.9584 26.33C79.9464 26.582 80.0244 26.786 80.1924 26.942C80.3604 27.086 80.5764 27.206 80.8404 27.302C81.1164 27.398 81.3924 27.488 81.6684 27.572C82.2084 27.752 82.6644 27.998 83.0364 28.31C83.4204 28.622 83.6124 29.078 83.6124 29.678C83.6124 30.35 83.3724 30.932 82.8924 31.424C82.4124 31.904 81.6864 32.144 80.7144 32.144Z" fill="#008080"/>
</svg>
