<svg width="138" height="137" viewBox="0 0 138 137" fill="none" xmlns="http://www.w3.org/2000/svg">
<path d="M132.007 68.5C132.007 103.275 103.707 131.5 68.7537 131.5C33.8005 131.5 5.5 103.275 5.5 68.5C5.5 33.7252 33.8005 5.5 68.7537 5.5C103.707 5.5 132.007 33.7252 132.007 68.5Z" fill="#FFD700" stroke="#333333" stroke-width="11"/>
<path d="M47.8831 69.8896V65.2597C52.04 65.2597 54.9399 64.3885 56.5828 62.6461C58.2505 60.9037 59.0844 57.9913 59.0844 53.9091V41.961C59.0844 38.526 59.408 35.5514 60.0552 33.0373C60.7273 30.5233 61.8101 28.4448 63.3036 26.802C64.7971 25.1591 66.7884 23.9394 69.2776 23.1429C71.7668 22.3463 74.8409 21.9481 78.5 21.9481V29.2662C75.6126 29.2662 73.335 29.7143 71.6672 30.6104C70.0244 31.5065 68.8544 32.9004 68.1575 34.7922C67.4854 36.6591 67.1494 39.0487 67.1494 41.961V56.8961C67.1494 58.8377 66.888 60.605 66.3653 62.1981C65.8674 63.7911 64.934 65.1602 63.5649 66.3052C62.1959 67.4502 60.2419 68.3339 57.7029 68.9562C55.1889 69.5785 51.9156 69.8896 47.8831 69.8896ZM78.5 117.532C74.8409 117.532 71.7668 117.134 69.2776 116.338C66.7884 115.541 64.7971 114.321 63.3036 112.679C61.8101 111.036 60.7273 108.957 60.0552 106.443C59.408 103.929 59.0844 100.955 59.0844 97.5195V85.5714C59.0844 81.4892 58.2505 78.5768 56.5828 76.8344C54.9399 75.092 52.04 74.2208 47.8831 74.2208V69.5909C51.9156 69.5909 55.1889 69.9021 57.7029 70.5244C60.2419 71.1466 62.1959 72.0303 63.5649 73.1753C64.934 74.3203 65.8674 75.6894 66.3653 77.2825C66.888 78.8755 67.1494 80.6429 67.1494 82.5844V97.5195C67.1494 100.432 67.4854 102.821 68.1575 104.688C68.8544 106.555 70.0244 107.937 71.6672 108.833C73.335 109.754 75.6126 110.214 78.5 110.214V117.532ZM47.8831 74.2208V65.2597H56.6948V74.2208H47.8831Z" fill="#333333"/>
</svg>
