<svg width="41" height="18" viewBox="0 0 41 18" fill="none" xmlns="http://www.w3.org/2000/svg">
<path d="M0.42 12.3164V12.1964L0.816 12.0764C0.96 12.0364 1.064 11.9604 1.128 11.8484C1.192 11.7284 1.224 11.5884 1.224 11.4284V5.65639C1.136 5.46439 1.064 5.32039 1.008 5.22439C0.96 5.12839 0.904 5.04839 0.84 4.98439C0.776 4.91239 0.688 4.82439 0.576 4.72039L0.372 4.51639V4.39639H2.496L6.48 9.83239V5.30839C6.48 5.14839 6.452 5.00439 6.396 4.87639C6.348 4.74839 6.244 4.66439 6.084 4.62439L5.688 4.51639V4.39639H7.404V4.51639L7.08 4.62439C6.936 4.67239 6.848 4.75639 6.816 4.87639C6.784 4.99639 6.768 5.13639 6.768 5.29639V12.3524H6.096L1.512 6.05239V11.4284C1.512 11.5884 1.536 11.7244 1.584 11.8364C1.632 11.9484 1.732 12.0284 1.884 12.0764L2.244 12.1964V12.3164H0.42ZM9.81984 12.3164V12.1964L10.1798 12.1004C10.4598 12.0204 10.5998 11.8204 10.5998 11.5004V9.22039L8.61984 5.18839C8.54784 5.02839 8.47984 4.90839 8.41584 4.82839C8.35984 4.74839 8.27184 4.68039 8.15184 4.62439L7.93584 4.51639V4.39639H11.1518V4.51639L10.9358 4.60039C10.7598 4.67239 10.6638 4.77239 10.6478 4.90039C10.6318 5.02039 10.6638 5.17239 10.7438 5.35639L12.1598 8.50039L13.7438 5.23639C13.8078 5.10839 13.8318 4.97639 13.8158 4.84039C13.8078 4.70439 13.7238 4.61639 13.5638 4.57639L13.3958 4.51639V4.39639H14.8358V4.51639L14.6078 4.60039C14.4558 4.65639 14.3438 4.73639 14.2718 4.84039C14.1998 4.93639 14.1278 5.06039 14.0558 5.21239L12.4118 8.66839V11.5004C12.4118 11.6604 12.4398 11.7924 12.4958 11.8964C12.5598 11.9924 12.6678 12.0604 12.8198 12.1004L13.1918 12.1964V12.3164H9.81984ZM16.8603 12.3164V12.1964L17.3523 12.0764C17.6803 12.0044 17.8443 11.8044 17.8443 11.4764V4.63639H16.8243C16.5283 4.63639 16.3163 4.71639 16.1883 4.87639C16.0603 5.02839 15.9243 5.24039 15.7803 5.51239L15.3483 6.35239H15.2283L15.2883 4.39639H22.2123L22.2603 6.35239H22.1403L21.7083 5.51239C21.5723 5.24039 21.4403 5.02839 21.3123 4.87639C21.1843 4.71639 20.9723 4.63639 20.6763 4.63639H19.6563V11.4764C19.6563 11.8044 19.8203 12.0044 20.1483 12.0764L20.6403 12.1964V12.3164H16.8603Z" fill="#333333"/>
<path d="M31.6464 4.67067C31.4279 4.54848 31.1829 4.48157 30.9326 4.47578C30.6823 4.46998 30.4345 4.52548 30.2106 4.63743L23.8819 7.80166L23.8819 8.29995L28.9737 8.29995C29.0291 8.14307 29.1158 7.99501 29.2413 7.8695C29.6909 7.41989 30.4199 7.41989 30.8695 7.8695C31.3191 8.31911 31.3191 9.04806 30.8695 9.49767C30.4199 9.94728 29.6909 9.94728 29.2413 9.49767C29.1158 9.37216 29.0291 9.2241 28.9737 9.06722L23.8819 9.06722L23.8819 9.56551L30.2106 12.7297C30.4345 12.8417 30.6823 12.8972 30.9326 12.8914C31.1829 12.8856 31.4279 12.8187 31.6464 12.6965L34.9399 10.8545L34.9399 6.5127L31.6464 4.67067ZM38.8707 9.70305L38.8707 7.66412C38.8707 7.02812 38.3549 6.51236 37.7189 6.51236L35.8008 6.51236L35.8008 10.8548L37.7189 10.8548C38.3549 10.8548 38.8705 10.3392 38.8707 9.70305Z" fill="#333333"/>
</svg>
