<svg width="1172" height="618" viewBox="0 0 1172 618" fill="none" xmlns="http://www.w3.org/2000/svg">
<path d="M641.29 176.436L611.222 110.388C611.222 110.388 561.107 0.308886 451.032 38.6003C340.958 76.8918 337.02 180.272 362.077 235.311C387.135 290.351 471.256 363.098 581.331 324.806C691.405 286.515 641.29 176.436 641.29 176.436Z" fill="#333333"/>
<path d="M110.941 344.46C119.159 344.46 127.321 345.07 135.428 346.292C143.535 347.513 151.308 349.512 158.749 352.289C166.189 355.065 173.075 358.674 179.405 363.116C185.734 367.558 191.232 373.055 195.896 379.607C200.56 386.16 204.225 393.822 206.89 402.595C209.555 411.257 210.888 421.252 210.888 432.579C210.888 446.572 208.889 458.677 204.891 468.893C200.893 478.999 195.563 487.495 188.899 494.38C182.236 501.265 174.518 506.707 165.745 510.704C156.972 514.591 147.755 517.312 138.093 518.867V564.176C138.093 568.174 137.76 571.616 137.094 574.504C136.427 577.391 135.206 579.779 133.429 581.667C131.763 583.666 129.32 585.109 126.1 585.998C122.99 586.997 118.937 587.497 113.939 587.497H40.9782C35.6477 587.497 31.3167 586.997 27.9851 585.998C24.6535 584.998 22.0438 583.499 20.1559 581.5C18.2681 579.612 16.991 577.225 16.3246 574.337C15.6583 571.45 15.3252 568.063 15.3252 564.176V430.914C15.3252 417.143 17.4352 404.872 21.6551 394.1C25.9862 383.328 32.2051 374.277 40.3119 366.948C48.5297 359.618 58.5244 354.066 70.2959 350.29C82.1785 346.403 95.7268 344.46 110.941 344.46ZM187.234 432.413C187.234 423.862 186.29 415.921 184.402 408.592C182.514 401.263 179.571 394.766 175.573 389.102C171.575 383.439 166.467 378.83 160.248 375.276C154.14 371.612 146.755 369.28 138.093 368.28V497.545C146.755 496.434 154.14 494.047 160.248 490.382C166.467 486.717 171.575 481.997 175.573 476.223C179.571 470.448 182.514 463.84 184.402 456.4C186.29 448.959 187.234 440.964 187.234 432.413ZM124.101 366.448C123.212 366.337 122.157 366.226 120.936 366.115C119.714 366.004 118.437 365.893 117.104 365.782C115.883 365.67 114.717 365.615 113.606 365.615C112.496 365.615 111.663 365.615 111.108 365.615L110.941 573.504C113.606 573.504 115.772 573.393 117.437 573.171C119.103 573.06 120.436 572.616 121.435 571.839C122.435 571.172 123.101 570.117 123.434 568.674C123.767 567.341 123.934 565.397 123.934 562.843L124.101 366.448ZM235.208 371.445C235.208 367.669 235.541 364.338 236.208 361.45C236.874 358.452 238.151 356.009 240.039 354.121C241.927 352.233 244.536 350.79 247.868 349.79C251.2 348.791 255.531 348.291 260.861 348.291H333.822C338.931 348.291 343.04 348.791 346.149 349.79C349.37 350.678 351.868 352.067 353.645 353.954C355.422 355.842 356.588 358.23 357.143 361.117C357.698 364.005 357.976 367.447 357.976 371.445V496.046C357.976 499.821 357.698 503.153 357.143 506.04C356.588 508.816 355.422 511.204 353.645 513.203C351.868 515.091 349.37 516.535 346.149 517.534C343.04 518.422 338.931 518.867 333.822 518.867H260.861C255.531 518.867 251.2 518.367 247.868 517.367C244.536 516.368 241.927 514.924 240.039 513.036C238.151 511.149 236.874 508.761 236.208 505.874C235.541 502.986 235.208 499.599 235.208 495.712V371.445ZM241.372 276.995C241.372 269.333 242.815 262.114 245.703 255.34C248.701 248.566 252.699 242.68 257.696 237.683C262.693 232.686 268.579 228.743 275.353 225.856C282.128 222.858 289.346 221.358 297.009 221.358C304.56 221.358 311.667 222.858 318.331 225.856C325.105 228.743 330.99 232.686 335.988 237.683C340.985 242.68 344.927 248.566 347.815 255.34C350.813 262.114 352.312 269.333 352.312 276.995C352.312 284.547 350.813 291.71 347.815 298.484C344.927 305.147 340.985 310.977 335.988 315.975C330.99 320.972 325.105 324.97 318.331 327.968C311.667 330.856 304.56 332.299 297.009 332.299C289.346 332.299 282.128 330.856 275.353 327.968C268.579 324.97 262.693 320.972 257.696 315.975C252.699 310.977 248.701 305.147 245.703 298.484C242.815 291.71 241.372 284.547 241.372 276.995ZM343.817 372.944C343.817 370.501 343.65 368.558 343.317 367.114C342.984 365.67 342.318 364.615 341.318 363.949C340.319 363.172 338.986 362.728 337.32 362.617C335.655 362.394 333.489 362.283 330.824 362.283V504.874C333.489 504.874 335.655 504.819 337.32 504.708C338.986 504.485 340.319 504.041 341.318 503.375C342.318 502.598 342.984 501.543 343.317 500.21C343.65 498.766 343.817 496.767 343.817 494.213V372.944ZM324.494 276.995C324.494 284.769 322.939 292.099 319.83 298.984C316.831 305.869 312.722 311.866 307.503 316.974C311.945 315.864 315.998 314.031 319.663 311.477C323.439 308.923 326.659 305.924 329.325 302.482C332.101 298.928 334.267 294.986 335.821 290.655C337.376 286.324 338.153 281.771 338.153 276.995C338.153 272.22 337.376 267.667 335.821 263.336C334.267 259.005 332.101 255.118 329.325 251.676C326.659 248.122 323.439 245.124 319.663 242.68C315.998 240.126 311.945 238.238 307.503 237.017C312.722 242.125 316.831 248.122 319.83 255.007C322.939 261.892 324.494 269.222 324.494 276.995ZM388.793 371.445C388.793 367.669 389.126 364.338 389.793 361.45C390.459 358.452 391.736 356.009 393.624 354.121C395.512 352.233 398.121 350.79 401.453 349.79C404.785 348.791 409.116 348.291 414.446 348.291H482.576C487.574 348.291 491.849 348.791 495.403 349.79C499.068 350.79 501.677 352.511 503.232 354.954C504.676 353.954 506.397 352.899 508.396 351.789C510.506 350.567 512.783 349.457 515.226 348.457C517.669 347.458 520.279 346.625 523.055 345.959C525.831 345.292 528.719 344.959 531.717 344.959C542.378 344.959 550.651 348.624 556.537 355.953C562.534 363.283 565.532 374.055 565.532 388.27V511.038C565.532 512.925 565.255 514.425 564.699 515.535C564.255 516.535 563.644 517.312 562.867 517.867C562.201 518.311 561.368 518.589 560.368 518.7C559.369 518.811 558.369 518.867 557.37 518.867H546.709C543.822 518.867 541.934 518.034 541.045 516.368C540.268 514.702 539.879 512.925 539.879 511.038V386.604C539.879 380.274 538.713 375.443 536.381 372.111C534.16 368.78 530.551 367.114 525.554 367.114C522.999 367.114 520.39 367.836 517.724 369.28C515.17 370.612 513.116 372.056 511.561 373.611V495.546C511.561 499.433 511.228 502.82 510.562 505.707C509.895 508.594 508.618 511.038 506.73 513.036C504.842 514.924 502.233 516.368 498.901 517.367C495.57 518.367 491.239 518.867 485.908 518.867H414.446C409.116 518.867 404.785 518.367 401.453 517.367C398.121 516.368 395.512 514.924 393.624 513.036C391.736 511.149 390.459 508.761 389.793 505.874C389.126 502.986 388.793 499.599 388.793 495.712V371.445ZM497.402 372.944C497.402 369.058 496.347 366.337 494.237 364.782C492.238 363.116 488.962 362.283 484.409 362.283V504.874C487.074 504.874 489.24 504.819 490.905 504.708C492.571 504.485 493.904 504.041 494.903 503.375C495.903 502.598 496.569 501.543 496.902 500.21C497.235 498.766 497.402 496.767 497.402 494.213V372.944ZM692.631 502.209C684.191 502.209 675.807 501.654 667.478 500.543C659.149 499.322 651.153 497.434 643.491 494.879C643.38 495.435 643.324 495.99 643.324 496.545C643.324 496.989 643.324 497.489 643.324 498.044C643.324 501.376 643.879 504.485 644.99 507.373C646.101 510.149 647.822 512.592 650.154 514.702C652.597 516.812 655.762 518.478 659.649 519.7C663.536 520.921 668.255 521.532 673.808 521.532C679.916 521.532 685.58 521.143 690.799 520.366C696.018 519.7 701.127 518.978 706.124 518.2C711.121 517.312 716.119 516.535 721.116 515.868C726.225 515.091 731.611 514.702 737.274 514.702C742.716 514.702 748.046 515.702 753.266 517.701C758.485 519.589 763.094 522.365 767.092 526.03C771.201 529.805 774.477 534.414 776.92 539.856C779.363 545.297 780.584 551.516 780.584 558.512C780.584 564.731 779.974 570.173 778.752 574.837C777.642 579.501 776.476 583.943 775.254 588.163C775.032 588.718 774.588 589.385 773.921 590.162C773.366 590.939 772.256 591.328 770.59 591.328H758.263C756.708 591.328 755.709 590.939 755.265 590.162C754.82 589.496 754.487 588.941 754.265 588.496C752.155 583.277 743.993 580.667 729.778 580.667C723.67 580.667 717.618 581 711.621 581.667C705.624 582.444 699.517 583.221 693.298 583.999C687.079 584.887 680.582 585.664 673.808 586.331C667.145 587.108 660.093 587.497 652.653 587.497C642.325 587.497 633.552 585.776 626.333 582.333C619.226 578.89 613.451 574.504 609.009 569.173C604.567 563.954 601.347 558.179 599.348 551.849C597.349 545.519 596.349 539.522 596.349 533.859C596.349 527.751 597.016 522.198 598.348 517.201C599.792 512.093 601.624 507.484 603.845 503.375C606.066 499.266 608.62 495.601 611.508 492.381C614.395 489.049 617.283 486.051 620.17 483.386C611.064 477.167 603.734 469.06 598.182 459.065C592.629 449.071 589.853 436.799 589.853 422.251C589.853 412.368 591.241 403.539 594.017 395.766C596.793 387.881 600.569 380.996 605.344 375.11C610.231 369.113 615.95 364.06 622.502 359.951C629.054 355.842 636.106 352.511 643.657 349.957C651.32 347.291 659.316 345.403 667.645 344.293C675.974 343.071 684.302 342.461 692.631 342.461C700.072 342.461 707.679 342.849 715.452 343.627C723.226 344.404 730.778 345.848 738.107 347.958C745.548 349.957 752.544 352.677 759.096 356.12C765.759 359.563 771.645 363.949 776.753 369.28L794.91 350.79C796.132 349.568 797.298 348.68 798.408 348.124C799.63 347.569 800.74 347.291 801.74 347.291C803.517 347.291 805.127 348.013 806.571 349.457L814.733 358.119C816.066 359.674 816.732 361.284 816.732 362.95C816.732 365.393 815.344 367.614 812.567 369.613L788.414 386.604C790.635 391.379 792.3 396.598 793.411 402.262C794.633 407.926 795.243 414.145 795.243 420.919C795.243 432.246 793.8 442.13 790.912 450.57C788.025 459.01 784.027 466.228 778.919 472.225C773.921 478.222 768.091 483.163 761.428 487.05C754.765 490.937 747.602 493.991 739.939 496.212C732.388 498.433 724.559 499.988 716.452 500.876C708.345 501.765 700.405 502.209 692.631 502.209ZM748.268 403.928C747.713 403.373 747.435 402.54 747.435 401.429C747.435 400.097 747.935 398.931 748.935 397.931L759.596 386.937C757.375 385.271 754.931 384.105 752.266 383.439C749.712 382.772 747.102 382.439 744.437 382.439C741.772 382.439 738.773 382.884 735.442 383.772C732.221 384.549 729.112 386.326 726.113 389.102C723.226 391.879 720.783 395.932 718.784 401.263C716.785 406.482 715.786 413.478 715.786 422.251C715.786 431.025 716.563 438.076 718.118 443.407C719.784 448.626 721.949 452.624 724.614 455.4C727.28 458.177 730.333 460.009 733.776 460.898C737.219 461.786 740.772 462.23 744.437 462.23C747.88 462.23 751.267 461.675 754.598 460.564C757.93 459.343 760.817 457.233 763.26 454.234C765.815 451.125 767.869 446.961 769.424 441.741C770.978 436.411 771.756 429.581 771.756 421.252C771.756 412.923 770.812 406.038 768.924 400.596L757.763 408.425C756.875 408.981 755.986 409.258 755.098 409.258C753.654 409.258 752.488 408.703 751.6 407.593L748.268 403.928ZM730.278 471.225C727.057 470.781 723.726 469.56 720.283 467.561C716.952 465.562 713.898 462.619 711.121 458.732C708.345 454.734 706.069 449.737 704.292 443.74C702.515 437.743 701.627 430.58 701.627 422.251C701.627 413.923 702.682 406.815 704.791 400.929C707.013 394.933 709.622 390.046 712.621 386.271C715.619 382.384 718.729 379.496 721.949 377.609C725.281 375.721 728.057 374.555 730.278 374.11C725.947 374.11 721.338 374.999 716.452 376.776C711.566 378.441 707.013 381.218 702.793 385.105C698.684 388.88 695.241 393.822 692.465 399.93C689.688 406.038 688.3 413.478 688.3 422.251C688.3 431.025 689.466 438.521 691.798 444.739C694.242 450.958 697.407 456.011 701.293 459.898C705.18 463.785 709.622 466.672 714.62 468.56C719.728 470.337 724.947 471.225 730.278 471.225ZM741.772 528.362C745.325 532.026 748.102 536.357 750.101 541.355C752.1 546.352 753.099 552.071 753.099 558.512C753.099 561.289 752.933 563.621 752.599 565.509C752.266 567.396 751.989 568.896 751.766 570.006C754.099 570.339 756.431 571.283 758.763 572.838C761.095 574.393 762.705 575.892 763.594 577.336C764.26 575.892 764.871 573.504 765.426 570.173C766.092 566.841 766.425 562.954 766.425 558.512C766.425 550.294 764.204 543.465 759.762 538.023C755.431 532.582 749.434 529.361 741.772 528.362ZM824.894 371.445C824.894 367.669 825.227 364.338 825.894 361.45C826.56 358.452 827.837 356.009 829.725 354.121C831.613 352.233 834.223 350.79 837.554 349.79C840.886 348.791 845.217 348.291 850.547 348.291H923.508C928.617 348.291 932.726 348.791 935.835 349.79C939.056 350.678 941.554 352.067 943.331 353.954C945.108 355.842 946.274 358.23 946.829 361.117C947.385 364.005 947.662 367.447 947.662 371.445V496.046C947.662 499.821 947.385 503.153 946.829 506.04C946.274 508.816 945.108 511.204 943.331 513.203C941.554 515.091 939.056 516.535 935.835 517.534C932.726 518.422 928.617 518.867 923.508 518.867H850.547C845.217 518.867 840.886 518.367 837.554 517.367C834.223 516.368 831.613 514.924 829.725 513.036C827.837 511.149 826.56 508.761 825.894 505.874C825.227 502.986 824.894 499.599 824.894 495.712V371.445ZM831.058 276.995C831.058 269.333 832.501 262.114 835.389 255.34C838.387 248.566 842.385 242.68 847.382 237.683C852.38 232.686 858.265 228.743 865.04 225.856C871.814 222.858 879.032 221.358 886.695 221.358C894.246 221.358 901.354 222.858 908.017 225.856C914.791 228.743 920.677 232.686 925.674 237.683C930.671 242.68 934.614 248.566 937.501 255.34C940.499 262.114 941.999 269.333 941.999 276.995C941.999 284.547 940.499 291.71 937.501 298.484C934.614 305.147 930.671 310.977 925.674 315.975C920.677 320.972 914.791 324.97 908.017 327.968C901.354 330.856 894.246 332.299 886.695 332.299C879.032 332.299 871.814 330.856 865.04 327.968C858.265 324.97 852.38 320.972 847.382 315.975C842.385 310.977 838.387 305.147 835.389 298.484C832.501 291.71 831.058 284.547 831.058 276.995ZM933.503 372.944C933.503 370.501 933.337 368.558 933.003 367.114C932.67 365.67 932.004 364.615 931.004 363.949C930.005 363.172 928.672 362.728 927.007 362.617C925.341 362.394 923.175 362.283 920.51 362.283V504.874C923.175 504.874 925.341 504.819 927.007 504.708C928.672 504.485 930.005 504.041 931.004 503.375C932.004 502.598 932.67 501.543 933.003 500.21C933.337 498.766 933.503 496.767 933.503 494.213V372.944ZM914.18 276.995C914.18 284.769 912.625 292.099 909.516 298.984C906.517 305.869 902.409 311.866 897.189 316.974C901.631 315.864 905.685 314.031 909.349 311.477C913.125 308.923 916.346 305.924 919.011 302.482C921.787 298.928 923.953 294.986 925.507 290.655C927.062 286.324 927.839 281.771 927.839 276.995C927.839 272.22 927.062 267.667 925.507 263.336C923.953 259.005 921.787 255.118 919.011 251.676C916.346 248.122 913.125 245.124 909.349 242.68C905.685 240.126 901.631 238.238 897.189 237.017C902.409 242.125 906.517 248.122 909.516 255.007C912.625 261.892 914.18 269.222 914.18 276.995ZM1097.25 342.461C1104.36 342.461 1111.46 342.905 1118.57 343.793C1125.68 344.571 1132.4 345.626 1138.73 346.958C1145.17 348.291 1151 349.79 1156.22 351.456C1161.55 353.011 1165.88 354.565 1169.21 356.12C1169.77 356.342 1170.32 356.675 1170.88 357.119C1171.54 357.564 1171.88 358.397 1171.88 359.618C1171.88 359.951 1171.82 360.396 1171.71 360.951C1171.6 361.506 1171.49 362.061 1171.38 362.617L1169.38 372.445C1169.16 373.777 1168.82 374.61 1168.38 374.943C1168.04 375.165 1167.71 375.276 1167.38 375.276C1166.82 375.276 1165.77 375.11 1164.21 374.777C1162.66 374.444 1160.99 374.277 1159.22 374.277C1152.89 374.277 1147.89 375.998 1144.22 379.441C1140.56 382.772 1138.23 388.658 1137.23 397.098L1127.9 474.89C1127.01 481.775 1124.68 488.216 1120.9 494.213C1117.24 500.21 1111.91 505.485 1104.91 510.038C1097.92 514.591 1089.25 518.145 1078.93 520.699C1068.71 523.364 1056.72 524.697 1042.94 524.697C1034.28 524.697 1025.84 524.142 1017.62 523.031C1009.41 522.032 1001.8 520.755 994.804 519.2C987.919 517.756 981.866 516.313 976.647 514.869C971.538 513.314 967.707 512.093 965.153 511.204C964.265 510.982 963.598 510.704 963.154 510.371C962.599 509.927 962.321 509.261 962.321 508.372C962.321 507.928 962.377 507.428 962.488 506.873C962.599 506.318 962.765 505.652 962.987 504.874L964.986 495.546C965.208 494.657 965.597 493.936 966.152 493.38C966.708 492.825 967.707 492.547 969.151 492.547C972.816 492.547 976.48 492.381 980.145 492.048C983.921 491.603 987.363 490.548 990.473 488.883C993.693 487.217 996.47 484.663 998.802 481.22C1001.24 477.777 1002.91 472.947 1003.8 466.728L1015.46 386.437C1016.68 377.997 1019.79 370.945 1024.79 365.282C1029.79 359.618 1035.95 355.121 1043.28 351.789C1050.72 348.346 1059.1 345.959 1068.43 344.626C1077.76 343.182 1087.37 342.461 1097.25 342.461ZM1065.6 509.205C1080.92 507.428 1092.53 503.153 1100.41 496.379C1108.41 489.493 1113.02 480.942 1114.24 470.726L1123.07 397.098C1124.07 388.658 1126.51 381.662 1130.4 376.109C1134.4 370.557 1139.84 367.17 1146.72 365.948C1140.5 365.948 1135.17 366.781 1130.73 368.447C1126.4 370.113 1122.74 372.389 1119.74 375.276C1116.74 378.053 1114.41 381.329 1112.74 385.105C1111.19 388.88 1110.19 392.878 1109.74 397.098L1100.91 470.726C1100.36 475.057 1099.19 479.221 1097.42 483.219C1095.75 487.217 1093.47 490.937 1090.59 494.38C1087.7 497.711 1084.15 500.71 1079.93 503.375C1075.82 505.929 1071.04 507.873 1065.6 509.205Z" fill="#333333"/>
<path d="M669.39 173.181C666.583 174.261 664.012 174.966 661.677 175.297C659.258 175.659 657.079 175.408 655.139 174.543C653.2 173.679 651.385 172.15 649.695 169.958C648.004 167.765 646.402 164.686 644.886 160.72L624.144 106.438C622.692 102.637 621.895 99.4372 621.754 96.8378C621.499 94.1876 621.82 91.9315 622.719 90.0694C623.617 88.2073 625.06 86.6567 627.048 85.4175C629.036 84.1783 631.516 82.9868 634.488 81.8429L727.102 46.1934C729.908 45.1131 732.464 44.3665 734.768 43.9535C736.989 43.5723 739.095 43.7567 741.086 44.5067C742.994 45.2885 744.778 46.7344 746.436 48.8445C747.981 50.9037 749.479 53.8336 750.931 57.6341L771.673 111.916C773.189 115.882 774.049 119.247 774.253 122.012C774.457 124.776 774.126 127.131 773.259 129.076C772.393 131.021 770.981 132.654 769.025 133.976C767.068 135.297 764.645 136.514 761.756 137.626L669.39 173.181ZM597.434 195.618C591.739 197.811 585.963 198.802 580.107 198.592C574.219 198.299 568.708 197.009 563.573 194.721C558.438 192.432 553.834 189.181 549.762 184.968C545.608 180.786 542.441 175.844 540.263 170.143C538.116 164.525 537.21 158.808 537.544 152.993C537.764 147.127 539.021 141.62 541.315 136.473C543.609 131.325 546.863 126.708 551.077 122.622C555.26 118.453 560.199 115.272 565.895 113.08C571.508 110.919 577.258 109.985 583.145 110.278C588.919 110.519 594.373 111.784 599.508 114.073C604.644 116.361 609.288 119.596 613.443 123.778C617.483 127.909 620.577 132.784 622.724 138.402C624.902 144.103 625.881 149.886 625.661 155.752C625.358 161.65 624.06 167.173 621.766 172.321C619.472 177.468 616.275 182.111 612.175 186.248C607.961 190.334 603.047 193.458 597.434 195.618ZM639.628 91.9482C637.812 92.6472 636.414 93.3272 635.436 93.9881C634.458 94.649 633.863 95.4466 633.652 96.3808C633.358 97.3468 633.407 98.4653 633.798 99.7364C634.106 101.039 634.639 102.682 635.397 104.665L741.383 63.8683C740.625 61.8854 739.969 60.2902 739.412 59.0827C738.774 57.9069 738.065 57.0425 737.285 56.4896C736.423 55.9684 735.45 55.7745 734.365 55.9079C733.197 56.0731 731.664 56.5211 729.765 57.2519L639.628 91.9482ZM573.803 133.776C579.581 131.552 585.471 130.612 591.473 130.955C597.443 131.216 603.068 132.557 608.349 134.979C606.261 131.992 603.747 129.5 600.806 127.505C597.834 125.426 594.69 123.888 591.374 122.89C587.943 121.842 584.397 121.358 580.736 121.441C577.075 121.523 573.469 122.248 569.92 123.614C566.371 124.98 563.207 126.861 560.43 129.257C557.653 131.653 555.379 134.376 553.61 137.427C551.726 140.426 550.413 143.68 549.671 147.188C548.814 150.645 548.563 154.201 548.918 157.856C551.231 152.511 554.52 147.738 558.786 143.537C563.019 139.254 568.025 136 573.803 133.776Z" fill="#333333"/>
<path d="M334.551 301.433C321.041 322.372 293.975 328.209 273.036 314.699C252.097 301.19 246.26 274.123 259.769 253.184C273.279 232.245 300.346 226.408 321.285 239.918C342.224 253.427 348.061 280.494 334.551 301.433Z" fill="white"/>
</svg>
